<?xml version="1.0" standalone="yes"?>

<svg version="1.1" viewBox="0.0 0.0 960.0 720.0" fill="none" stroke="none" stroke-linecap="square" stroke-miterlimit="10" xmlns="http://www.w3.org/2000/svg" xmlns:xlink="http://www.w3.org/1999/xlink"><clipPath id="p.0"><path d="m0 0l960.0 0l0 720.0l-960.0 0l0 -720.0z" clip-rule="nonzero"></path></clipPath><g clip-path="url(#p.0)"><path fill="#000000" fill-opacity="0.0" d="m0 0l960.0 0l0 720.0l-960.0 0z" fill-rule="evenodd"></path><path fill="#cfe2f3" d="m56.0 572.0l0 0c0 -12.730408 44.671303 -24.939392 124.18672 -33.9411c79.51543 -9.00177 187.3615 -14.058899 299.8133 -14.058899l0 0c234.16876 0 424.0 21.490356 424.0 48.0l0 0c0 26.509644 -189.83124 48.0 -424.0 48.0l0 0c-234.16873 0 -424.0 -21.490356 -424.0 -48.0z" fill-rule="evenodd"></path><path fill="#000000" fill-opacity="0.0" d="m365.09186 455.4987l23.24411 86.80313" fill-rule="evenodd"></path><path stroke="#000000" stroke-width="8.0" stroke-linejoin="round" stroke-linecap="butt" d="m365.09186 455.4987l23.24411 86.80313" fill-rule="evenodd"></path><path fill="#ffffff" d="m256.09186 245.49869l141.85828 0l0 141.85828l-141.85828 0z" fill-rule="evenodd"></path><path stroke="#000000" stroke-width="4.0" stroke-linejoin="round" stroke-linecap="butt" d="m256.09186 245.49869l141.85828 0l0 141.85828l-141.85828 0z" fill-rule="evenodd"></path><path fill="#ff0000" d="m397.95932 333.3609l0 106.404205c0 -11.753113 -31.759003 -21.280853 -70.9357 -21.280853c-39.176697 0 -70.9357 9.5277405 -70.9357 21.280853l0 -106.404205l0 0c0 -11.753082 31.759003 -21.280853 70.9357 -21.280853c39.176697 0 70.9357 9.527771 70.9357 21.280853z" fill-rule="evenodd"></path><path stroke="#ffffff" stroke-width="1.0" stroke-linejoin="round" stroke-linecap="butt" d="m397.95932 333.3609l0 106.404205c0 -11.753113 -31.759003 -21.280853 -70.9357 -21.280853c-39.176697 0 -70.9357 9.5277405 -70.9357 21.280853l0 -106.404205l0 0c0 -11.753082 31.759003 -21.280853 70.9357 -21.280853c39.176697 0 70.9357 9.527771 70.9357 21.280853z" fill-rule="evenodd"></path><path fill="#ff0000" d="m256.09448 375.0551l0 63.84253l0 0c0 35.259247 31.756073 63.8425 70.92914 63.8425c39.173065 0 70.92914 -28.583252 70.92914 -63.8425l0 -63.84253z" fill-rule="evenodd"></path><path stroke="#000000" stroke-width="4.0" stroke-linejoin="round" stroke-linecap="butt" d="m256.09448 375.0551l0 63.84253l0 0c0 35.259247 31.756073 63.8425 70.92914 63.8425c39.173065 0 70.92914 -28.583252 70.92914 -63.8425l0 -63.84253z" fill-rule="evenodd"></path><path fill="#ffffff" d="m256.0 295.07874l0 -63.842514l0 0c0 -35.259247 31.756042 -63.842514 70.92914 -63.842514c39.173065 0 70.92914 28.583267 70.92914 63.842514l0 63.842514z" fill-rule="evenodd"></path><path stroke="#000000" stroke-width="4.0" stroke-linejoin="round" stroke-linecap="butt" d="m256.0 295.07874l0 -63.842514l0 0c0 -35.259247 31.756042 -63.842514 70.92914 -63.842514c39.173065 0 70.92914 28.583267 70.92914 63.842514l0 63.842514z" fill-rule="evenodd"></path><path fill="#ff0000" d="m258.01575 334.4987l137.82678 0l0 83.46457l-137.82678 0z" fill-rule="evenodd"></path><path fill="#000000" fill-opacity="0.0" d="m397.95276 287.4987l0 97.25986" fill-rule="evenodd"></path><path stroke="#000000" stroke-width="4.0" stroke-linejoin="round" stroke-linecap="butt" d="m397.95276 287.4987l0 97.25986" fill-rule="evenodd"></path><path fill="#000000" fill-opacity="0.0" d="m256.09448 299.4987l0 85.25986" fill-rule="evenodd"></path><path stroke="#000000" stroke-width="4.0" stroke-linejoin="round" stroke-linecap="butt" d="m256.09448 299.4987l0 85.25986" fill-rule="evenodd"></path><path fill="#ffffff" d="m258.01575 273.4987l137.82678 0l0 38.582672l-137.82678 0z" fill-rule="evenodd"></path><path fill="#000000" d="m333.09186 230.99475l0 0c0 -3.5920258 2.9119263 -6.503937 6.503937 -6.503937l0 0c1.7249451 0 3.3792725 0.68522644 4.598999 1.904953c1.219696 1.2197266 1.9049377 2.8740387 1.9049377 4.598984l0 0c0 3.5920258 -2.9118958 6.503937 -6.503937 6.503937l0 0c-3.5920105 0 -6.503937 -2.911911 -6.503937 -6.503937z" fill-rule="evenodd"></path><path stroke="#000000" stroke-width="1.0" stroke-linejoin="round" stroke-linecap="butt" d="m333.09186 230.99475l0 0c0 -3.5920258 2.9119263 -6.503937 6.503937 -6.503937l0 0c1.7249451 0 3.3792725 0.68522644 4.598999 1.904953c1.219696 1.2197266 1.9049377 2.8740387 1.9049377 4.598984l0 0c0 3.5920258 -2.9118958 6.503937 -6.503937 6.503937l0 0c-3.5920105 0 -6.503937 -2.911911 -6.503937 -6.503937z" fill-rule="evenodd"></path><path fill="#000000" d="m369.58792 238.99475l0 0c0 -3.5920258 2.9119263 -6.503937 6.503937 -6.503937l0 0c1.7249451 0 3.3792725 0.68522644 4.5989685 1.904953c1.2197266 1.2197266 1.9049683 2.8740387 1.9049683 4.598984l0 0c0 3.5920258 -2.9118958 6.503937 -6.503937 6.503937l0 0c-3.5920105 0 -6.503937 -2.911911 -6.503937 -6.503937z" fill-rule="evenodd"></path><path stroke="#000000" stroke-width="1.0" stroke-linejoin="round" stroke-linecap="butt" d="m369.58792 238.99475l0 0c0 -3.5920258 2.9119263 -6.503937 6.503937 -6.503937l0 0c1.7249451 0 3.3792725 0.68522644 4.5989685 1.904953c1.2197266 1.2197266 1.9049683 2.8740387 1.9049683 4.598984l0 0c0 3.5920258 -2.9118958 6.503937 -6.503937 6.503937l0 0c-3.5920105 0 -6.503937 -2.911911 -6.503937 -6.503937z" fill-rule="evenodd"></path><path fill="#000000" fill-opacity="0.0" d="m317.6193 270.61563c8.604614 12.399597 22.016571 24.817383 37.062103 26.009674c13.563385 1.0748596 29.523407 -6.519104 36.550507 -18.169891" fill-rule="evenodd"></path><path stroke="#000000" stroke-width="4.0" stroke-linejoin="round" stroke-linecap="butt" d="m317.6193 270.61563c8.604614 12.399597 22.016571 24.817383 37.062103 26.009674c13.563385 1.0748596 29.523407 -6.519104 36.550507 -18.169891" fill-rule="evenodd"></path><path fill="#000000" d="m384.09186 542.9974l0 0c0 -5.522827 7.833252 -10.0 17.496063 -10.0l0 0c9.662811 0 17.496063 4.477173 17.496063 10.0l0 0c0 5.522827 -7.833252 10.0 -17.496063 10.0l0 0c-9.662811 0 -17.496063 -4.477173 -17.496063 -10.0z" fill-rule="evenodd"></path><path stroke="#000000" stroke-width="1.0" stroke-linejoin="round" stroke-linecap="butt" d="m384.09186 542.9974l0 0c0 -5.522827 7.833252 -10.0 17.496063 -10.0l0 0c9.662811 0 17.496063 4.477173 17.496063 10.0l0 0c0 5.522827 -7.833252 10.0 -17.496063 10.0l0 0c-9.662811 0 -17.496063 -4.477173 -17.496063 -10.0z" fill-rule="evenodd"></path><path fill="#000000" fill-opacity="0.0" d="m300.09186 475.4987l-9.322815 94.80313" fill-rule="evenodd"></path><path stroke="#000000" stroke-width="8.0" stroke-linejoin="round" stroke-linecap="butt" d="m300.09186 475.4987l-9.322815 94.80313" fill-rule="evenodd"></path><path fill="#000000" d="m286.02887 570.0l0 0c0 -5.522827 7.833252 -10.0 17.496063 -10.0l0 0c9.662811 0 17.496063 4.477173 17.496063 10.0l0 0c0 5.522827 -7.833252 10.0 -17.496063 10.0l0 0c-9.662811 0 -17.496063 -4.477173 -17.496063 -10.0z" fill-rule="evenodd"></path><path stroke="#000000" stroke-width="1.0" stroke-linejoin="round" stroke-linecap="butt" d="m286.02887 570.0l0 0c0 -5.522827 7.833252 -10.0 17.496063 -10.0l0 0c9.662811 0 17.496063 4.477173 17.496063 10.0l0 0c0 5.522827 -7.833252 10.0 -17.496063 10.0l0 0c-9.662811 0 -17.496063 -4.477173 -17.496063 -10.0z" fill-rule="evenodd"></path><path fill="#000000" fill-opacity="0.0" d="m614.98724 469.21594l-14.86615 88.59845" fill-rule="evenodd"></path><path stroke="#000000" stroke-width="8.0" stroke-linejoin="round" stroke-linecap="butt" d="m614.98724 469.21594l-14.86615 88.59845" fill-rule="evenodd"></path><path fill="#ffffff" d="m703.4509 249.77307l-141.1969 13.543304l13.543335 141.19684l141.19684 -13.543304z" fill-rule="evenodd"></path><path stroke="#000000" stroke-width="4.0" stroke-linejoin="round" stroke-linecap="butt" d="m703.4509 249.77307l-141.1969 13.543304l13.543335 141.19684l141.19684 -13.543304z" fill-rule="evenodd"></path><path fill="#ff0000" d="m570.6149 350.77182l10.153503 105.91867c-1.121521 -11.699463 29.583374 -24.214294 68.5813 -27.952667c38.997925 -3.7383728 71.52118 2.715332 72.6427 14.414795l-10.153503 -105.91867l0 0c-1.121521 -11.699432 -33.644714 -18.153168 -72.6427 -14.414795c-38.997925 3.7384033 -69.70282 16.253235 -68.5813 27.952667z" fill-rule="evenodd"></path><path stroke="#ffffff" stroke-width="1.0" stroke-linejoin="round" stroke-linecap="butt" d="m570.6149 350.77182l10.153503 105.91867c-1.121521 -11.699463 29.583374 -24.214294 68.5813 -27.952667c38.997925 -3.7383728 71.52118 2.715332 72.6427 14.414795l-10.153503 -105.91867l0 0c-1.121521 -11.699432 -33.644714 -18.153168 -72.6427 -14.414795c-38.997925 3.7384033 -69.70282 16.253235 -68.5813 27.952667z" fill-rule="evenodd"></path><path fill="#ff0000" d="m715.81104 378.73856l6.0944824 63.55905l0 0c3.3659058 35.10269 -25.513489 66.59082 -64.50397 70.33069c-38.990417 3.7399292 -73.32703 -21.684692 -76.69287 -56.787384l-6.0944824 -63.55905z" fill-rule="evenodd"></path><path stroke="#000000" stroke-width="4.0" stroke-linejoin="round" stroke-linecap="butt" d="m715.81104 378.73856l6.0944824 63.55905l0 0c3.3659058 35.10269 -25.513489 66.59082 -64.50397 70.33069c-38.990417 3.7399292 -73.32703 -21.684692 -76.69287 -56.787384l-6.0944824 -63.55905z" fill-rule="evenodd"></path><path fill="#ffffff" d="m708.27344 299.1181l-6.0944824 -63.55905l0 0c-3.3659058 -35.10269 -37.702454 -60.527283 -76.69287 -56.7874c-38.99048 3.7398834 -67.86987 35.228012 -64.50397 70.3307l6.0944824 63.55905z" fill-rule="evenodd"></path><path stroke="#000000" stroke-width="4.0" stroke-linejoin="round" stroke-linecap="butt" d="m708.27344 299.1181l-6.0944824 -63.55905l0 0c-3.3659058 -35.10269 -37.702454 -60.527283 -76.69287 -56.7874c-38.99048 3.7398834 -67.86987 35.228012 -64.50397 70.3307l6.0944824 63.55905z" fill-rule="evenodd"></path><path fill="#ff0000" d="m710.0285 338.55054l-137.19684 13.165344l7.968506 83.08661l137.19684 -13.165344z" fill-rule="evenodd"></path><path fill="#000000" fill-opacity="0.0" d="m566.2452 305.1183l9.291321 96.81888" fill-rule="evenodd"></path><path stroke="#000000" stroke-width="4.0" stroke-linejoin="round" stroke-linecap="butt" d="m566.2452 305.1183l9.291321 96.81888" fill-rule="evenodd"></path><path fill="#000000" fill-opacity="0.0" d="m708.60114 303.52692l8.126038 84.88187" fill-rule="evenodd"></path><path stroke="#000000" stroke-width="4.0" stroke-linejoin="round" stroke-linecap="butt" d="m708.60114 303.52692l8.126038 84.88187" fill-rule="evenodd"></path><path fill="#ffffff" d="m704.20764 277.8289l-137.19684 13.165344l3.6850586 38.393707l137.19684 -13.165344z" fill-rule="evenodd"></path><path fill="#000000" d="m625.4118 242.6811l0 0c-0.33917236 -3.5746307 -3.511963 -6.197464 -7.086609 -5.858261l0 0c-1.7166138 0.16288757 -3.2981567 1.0010223 -4.3968506 2.330017c-1.0986328 1.3289948 -1.6243286 3.0399933 -1.4614258 4.756592l0 0c0.3392334 3.5746307 3.511963 6.197464 7.086609 5.8582764l0 0c3.574646 -0.33920288 6.1974487 -3.5119934 5.8582764 -7.086624z" fill-rule="evenodd"></path><path stroke="#000000" stroke-width="1.0" stroke-linejoin="round" stroke-linecap="butt" d="m625.4118 242.6811l0 0c-0.33917236 -3.5746307 -3.511963 -6.197464 -7.086609 -5.858261l0 0c-1.7166138 0.16288757 -3.2981567 1.0010223 -4.3968506 2.330017c-1.0986328 1.3289948 -1.6243286 3.0399933 -1.4614258 4.756592l0 0c0.3392334 3.5746307 3.511963 6.197464 7.086609 5.8582764l0 0c3.574646 -0.33920288 6.1974487 -3.5119934 5.8582764 -7.086624z" fill-rule="evenodd"></path><path fill="#000000" d="m589.84564 254.12718l0 0c-0.33917236 -3.5746307 -3.511963 -6.197464 -7.086609 -5.858261l0 0c-1.7165527 0.16288757 -3.2981567 1.0010223 -4.3967896 2.330017c-1.0986328 1.3289948 -1.6243286 3.0399933 -1.4614258 4.756592l0 0c0.33917236 3.574646 3.511963 6.1974792 7.086609 5.8582764l0 0c3.574585 -0.33920288 6.1974487 -3.5119934 5.8582153 -7.086624z" fill-rule="evenodd"></path><path stroke="#000000" stroke-width="1.0" stroke-linejoin="round" stroke-linecap="butt" d="m589.84564 254.12718l0 0c-0.33917236 -3.5746307 -3.511963 -6.197464 -7.086609 -5.858261l0 0c-1.7165527 0.16288757 -3.2981567 1.0010223 -4.3967896 2.330017c-1.0986328 1.3289948 -1.6243286 3.0399933 -1.4614258 4.756592l0 0c0.33917236 3.574646 3.511963 6.1974792 7.086609 5.8582764l0 0c3.574585 -0.33920288 6.1974487 -3.5119934 5.8582153 -7.086624z" fill-rule="evenodd"></path><path fill="#000000" fill-opacity="0.0" d="m644.601 280.64655c-7.381653 13.164276 -19.546936 26.805573 -34.40985 29.428589c-13.398743 2.3646545 -30.010681 -3.6710815 -38.117798 -14.597778" fill-rule="evenodd"></path><path stroke="#000000" stroke-width="4.0" stroke-linejoin="round" stroke-linecap="butt" d="m644.601 280.64655c-7.381653 13.164276 -19.546936 26.805573 -34.40985 29.428589c-13.398743 2.3646545 -30.010681 -3.6710815 -38.117798 -14.597778" fill-rule="evenodd"></path><path fill="#000000" d="m606.20886 560.5371l0 0c0 -5.522827 -7.833252 -10.0 -17.496094 -10.0l0 0c-9.662781 0 -17.496033 4.477173 -17.496033 10.0l0 0c0 5.522888 7.833252 10.0 17.496033 10.0l0 0c9.662842 0 17.496094 -4.477112 17.496094 -10.0z" fill-rule="evenodd"></path><path stroke="#000000" stroke-width="1.0" stroke-linejoin="round" stroke-linecap="butt" d="m606.20886 560.5371l0 0c0 -5.522827 -7.833252 -10.0 -17.496094 -10.0l0 0c-9.662781 0 -17.496033 4.477173 -17.496033 10.0l0 0c0 5.522888 7.833252 10.0 17.496033 10.0l0 0c9.662842 0 17.496094 -4.477112 17.496094 -10.0z" fill-rule="evenodd"></path><path fill="#000000" fill-opacity="0.0" d="m670.20886 486.03845l9.322815 94.80316" fill-rule="evenodd"></path><path stroke="#000000" stroke-width="8.0" stroke-linejoin="round" stroke-linecap="butt" d="m670.20886 486.03845l9.322815 94.80316" fill-rule="evenodd"></path><path fill="#000000" d="m684.27185 580.53973l0 0c0 -5.522827 -7.833252 -10.0 -17.496094 -10.0l0 0c-9.662781 0 -17.496033 4.477173 -17.496033 10.0l0 0c0 5.522888 7.833252 10.0 17.496033 10.0l0 0c9.662842 0 17.496094 -4.477112 17.496094 -10.0z" fill-rule="evenodd"></path><path stroke="#000000" stroke-width="1.0" stroke-linejoin="round" stroke-linecap="butt" d="m684.27185 580.53973l0 0c0 -5.522827 -7.833252 -10.0 -17.496094 -10.0l0 0c-9.662781 0 -17.496033 4.477173 -17.496033 10.0l0 0c0 5.522888 7.833252 10.0 17.496033 10.0l0 0c9.662842 0 17.496094 -4.477112 17.496094 -10.0z" fill-rule="evenodd"></path><path fill="#999999" d="m446.23203 144.06926l51.833588 -13.374405l4.502411 17.440002l-51.83362 13.37439z" fill-rule="evenodd"></path><path stroke="#999999" stroke-width="1.0" stroke-linejoin="round" stroke-linecap="butt" d="m446.23203 144.06926l51.833588 -13.374405l4.502411 17.440002l-51.83362 13.37439z" fill-rule="evenodd"></path><path fill="#000000" fill-opacity="0.0" d="m497.99545 130.42307l16.884003 65.40001" fill-rule="evenodd"></path><path stroke="#999999" stroke-width="8.0" stroke-linejoin="round" stroke-linecap="butt" d="m497.99545 130.42307l16.884003 65.40001" fill-rule="evenodd"></path><path fill="#000000" fill-opacity="0.0" d="m446.16187 143.79747l16.884003 65.399994" fill-rule="evenodd"></path><path stroke="#999999" stroke-width="8.0" stroke-linejoin="round" stroke-linecap="butt" d="m446.16187 143.79747l16.884003 65.399994" fill-rule="evenodd"></path><path fill="#999999" d="m442.8677 214.42131l0 0c-1.8649597 -7.223877 1.9786072 -14.4618225 8.584808 -16.166397l0 0c3.1723938 -0.81855774 6.570648 -0.22554016 9.447174 1.6486206c2.8764954 1.874176 4.995636 4.875946 5.891205 8.344986l0 0c1.8649597 7.223877 -1.9785767 14.4618225 -8.584778 16.166397l0 0c-6.6062317 1.7045746 -13.47345 -2.7697144 -15.338409 -9.993607z" fill-rule="evenodd"></path><path stroke="#999999" stroke-width="1.0" stroke-linejoin="round" stroke-linecap="butt" d="m442.8677 214.42131l0 0c-1.8649597 -7.223877 1.9786072 -14.4618225 8.584808 -16.166397l0 0c3.1723938 -0.81855774 6.570648 -0.22554016 9.447174 1.6486206c2.8764954 1.874176 4.995636 4.875946 5.891205 8.344986l0 0c1.8649597 7.223877 -1.9785767 14.4618225 -8.584778 16.166397l0 0c-6.6062317 1.7045746 -13.47345 -2.7697144 -15.338409 -9.993607z" fill-rule="evenodd"></path><path fill="#999999" d="m494.70264 201.54594l0 0c-1.8649597 -7.223892 1.9785767 -14.461838 8.584778 -16.166412l0 0c3.1724243 -0.81855774 6.5706787 -0.2255249 9.447205 1.6486359c2.8764648 1.8741608 4.9956055 4.875931 5.8912354 8.344971l0 0c1.8649292 7.223877 -1.9786377 14.4618225 -8.584839 16.166397l0 0c-6.606201 1.7045746 -13.47345 -2.7697144 -15.338379 -9.993591z" fill-rule="evenodd"></path><path stroke="#999999" stroke-width="1.0" stroke-linejoin="round" stroke-linecap="butt" d="m494.70264 201.54594l0 0c-1.8649597 -7.223892 1.9785767 -14.461838 8.584778 -16.166412l0 0c3.1724243 -0.81855774 6.5706787 -0.2255249 9.447205 1.6486359c2.8764648 1.8741608 4.9956055 4.875931 5.8912354 8.344971l0 0c1.8649292 7.223877 -1.9786377 14.4618225 -8.584839 16.166397l0 0c-6.606201 1.7045746 -13.47345 -2.7697144 -15.338379 -9.993591z" fill-rule="evenodd"></path><path fill="#666666" d="m788.6532 122.853l86.007996 33.810394l-9.657593 24.576004l-86.007996 -33.810394z" fill-rule="evenodd"></path><path stroke="#666666" stroke-width="1.0" stroke-linejoin="round" stroke-linecap="butt" d="m788.6532 122.853l86.007996 33.810394l-9.657593 24.576004l-86.007996 -33.810394z" fill-rule="evenodd"></path><path fill="#000000" fill-opacity="0.0" d="m874.8117 156.28041l-36.216003 92.15999" fill-rule="evenodd"></path><path stroke="#666666" stroke-width="8.0" stroke-linejoin="round" stroke-linecap="butt" d="m874.8117 156.28041l-36.216003 92.15999" fill-rule="evenodd"></path><path fill="#000000" fill-opacity="0.0" d="m788.8037 122.47l-36.216003 92.16" fill-rule="evenodd"></path><path stroke="#666666" stroke-width="8.0" stroke-linejoin="round" stroke-linecap="butt" d="m788.8037 122.47l-36.216003 92.16" fill-rule="evenodd"></path><path fill="#666666" d="m715.7873 200.16348l0 0c4.000305 -10.179718 16.129456 -14.938751 27.091187 -10.629608l0 0c10.961792 4.3091583 16.605164 16.054688 12.604797 26.234406l0 0c-4.000305 10.179718 -16.129395 14.938751 -27.091187 10.629608l0 0c-10.961731 -4.3091583 -16.605103 -16.054688 -12.604797 -26.234406z" fill-rule="evenodd"></path><path stroke="#666666" stroke-width="1.0" stroke-linejoin="round" stroke-linecap="butt" d="m715.7873 200.16348l0 0c4.000305 -10.179718 16.129456 -14.938751 27.091187 -10.629608l0 0c10.961792 4.3091583 16.605164 16.054688 12.604797 26.234406l0 0c-4.000305 10.179718 -16.129395 14.938751 -27.091187 10.629608l0 0c-10.961731 -4.3091583 -16.605103 -16.054688 -12.604797 -26.234406z" fill-rule="evenodd"></path><path fill="#666666" d="m801.79315 233.97302l0 0c4.000305 -10.179703 16.129456 -14.938736 27.091187 -10.629593l0 0c10.961731 4.309143 16.605103 16.054688 12.604797 26.234406l0 0c-4.000305 10.179703 -16.129456 14.938736 -27.091187 10.629593l0 0c-10.961792 -4.309143 -16.605103 -16.054688 -12.604797 -26.234406z" fill-rule="evenodd"></path><path stroke="#666666" stroke-width="1.0" stroke-linejoin="round" stroke-linecap="butt" d="m801.79315 233.97302l0 0c4.000305 -10.179703 16.129456 -14.938736 27.091187 -10.629593l0 0c10.961731 4.309143 16.605103 16.054688 12.604797 26.234406l0 0c-4.000305 10.179703 -16.129456 14.938736 -27.091187 10.629593l0 0c-10.961792 -4.309143 -16.605103 -16.054688 -12.604797 -26.234406z" fill-rule="evenodd"></path><path fill="#000000" d="m115.2211 127.2394l100.724 -25.885597l7.964798 30.992004l-100.72399 25.88559z" fill-rule="evenodd"></path><path stroke="#000000" stroke-width="1.0" stroke-linejoin="round" stroke-linecap="butt" d="m115.2211 127.2394l100.724 -25.885597l7.964798 30.992004l-100.72399 25.88559z" fill-rule="evenodd"></path><path fill="#000000" fill-opacity="0.0" d="m215.82098 100.87083l29.867996 116.21999" fill-rule="evenodd"></path><path stroke="#000000" stroke-width="8.0" stroke-linejoin="round" stroke-linecap="butt" d="m215.82098 100.87083l29.867996 116.21999" fill-rule="evenodd"></path><path fill="#000000" fill-opacity="0.0" d="m115.09698 126.756424l29.868004 116.22" fill-rule="evenodd"></path><path stroke="#000000" stroke-width="8.0" stroke-linejoin="round" stroke-linecap="butt" d="m115.09698 126.756424l29.868004 116.22" fill-rule="evenodd"></path><path fill="#000000" d="m101.868 254.05214l0 0c-3.2991257 -12.837296 4.433098 -25.918457 17.270401 -29.21759l0 0c6.1646957 -1.5843048 12.706253 -0.6548004 18.185623 2.5840302c5.479355 3.2388306 9.447678 8.521683 11.031982 14.686371l0 0c3.299118 12.837311 -4.43309 25.918457 -17.270401 29.21759l0 0c-12.837311 3.2991333 -25.918472 -4.433075 -29.217606 -17.270401z" fill-rule="evenodd"></path><path stroke="#000000" stroke-width="1.0" stroke-linejoin="round" stroke-linecap="butt" d="m101.868 254.05214l0 0c-3.2991257 -12.837296 4.433098 -25.918457 17.270401 -29.21759l0 0c6.1646957 -1.5843048 12.706253 -0.6548004 18.185623 2.5840302c5.479355 3.2388306 9.447678 8.521683 11.031982 14.686371l0 0c3.299118 12.837311 -4.43309 25.918457 -17.270401 29.21759l0 0c-12.837311 3.2991333 -25.918472 -4.433075 -29.217606 -17.270401z" fill-rule="evenodd"></path><path fill="#000000" d="m202.58946 228.1672l0 0c-3.2991333 -12.837311 4.43309 -25.918472 17.270401 -29.217606l0 0c6.164688 -1.5843048 12.706253 -0.65478516 18.185608 2.5840302c5.47937 3.2388306 9.447693 8.521683 11.031982 14.686371l0 0c3.2991333 12.837311 -4.43309 25.918472 -17.270401 29.217606l0 0c-12.837296 3.299118 -25.918472 -4.4331055 -29.21759 -17.270401z" fill-rule="evenodd"></path><path stroke="#000000" stroke-width="1.0" stroke-linejoin="round" stroke-linecap="butt" d="m202.58946 228.1672l0 0c-3.2991333 -12.837311 4.43309 -25.918472 17.270401 -29.217606l0 0c6.164688 -1.5843048 12.706253 -0.65478516 18.185608 2.5840302c5.47937 3.2388306 9.447693 8.521683 11.031982 14.686371l0 0c3.2991333 12.837311 -4.43309 25.918472 -17.270401 29.217606l0 0c-12.837296 3.299118 -25.918472 -4.4331055 -29.21759 -17.270401z" fill-rule="evenodd"></path></g></svg>

